<?xml version="1.0" encoding="UTF-8"?>
<svg width="287px" height="250px" viewBox="0 0 287 250" version="1.1" xmlns="http://www.w3.org/2000/svg" xmlns:xlink="http://www.w3.org/1999/xlink">
    <title>Reza City Final</title>
    <g id="Side-Menu,-Help-&amp;-Order-functionality" stroke="none" stroke-width="1" fill="none" fill-rule="evenodd">
        <g id="Reza-City-Final">
            <path d="M150.027,0.669 C192.88,0.669 227.618,35.407 227.618,78.259 C227.618,121.112 192.88,155.851 150.027,155.851 C107.175,155.851 72.436,121.112 72.436,78.259 C72.436,35.407 107.175,0.669 150.027,0.669" id="Fill-1" fill="#FFCF4B"></path>
            <polyline id="Fill-2" fill="#2D3E56" points="172.533 3.383 172.533 22.224 170.361 21.641 168.188 22.224 168.188 3.383 172.533 3.383"></polyline>
            <polyline id="Fill-3" fill="#2D3E56" points="159.187 22.613 170.361 19.034 180.596 21.777 180.596 99.925 170.361 97.183 159.187 100.761 159.187 22.613"></polyline>
            <polyline id="Fill-4" fill="#FFCF4B" points="163.531 25.946 163.531 95.099 170.361 92.685 170.361 23.533 163.531 25.946"></polyline>
            <polyline id="Fill-5" fill="#2D3E56" points="154.842 35.689 170.361 31.53 185.213 35.509 185.213 113.657 170.361 109.678 154.842 113.836 154.842 35.689"></polyline>
            <polyline id="Fill-6" fill="#F5AB35" points="159.187 39.022 159.187 108.174 170.361 105.18 170.361 36.028 159.187 39.022"></polyline>
            <path d="M159.187,39.022 L159.187,52.215 C163.448,47.504 166.976,42.116 169.593,36.234 L159.187,39.022" id="Fill-7" fill="#FFCF4B"></path>
            <polyline id="Fill-8" fill="#2D3E56" points="99.481 24.716 129.533 16.663 146.544 21.221 146.544 99.369 129.533 94.812 99.481 102.864 99.481 24.716"></polyline>
            <path d="M103.825,28.049 L103.825,97.202 L129.533,90.314 L129.533,21.161 L103.825,28.049 Z M108.569,50.725 L114.681,49.087 L114.681,55.199 L108.569,56.836 L108.569,50.725 Z M118.678,48.016 L124.789,46.379 L124.789,52.49 L118.678,54.128 L118.678,48.016 Z M108.569,41.175 L124.789,36.829 L124.789,42.941 L108.569,47.287 L108.569,41.175 Z M108.569,31.626 L124.789,27.28 L124.789,33.392 L108.569,37.738 L108.569,31.626 L108.569,31.626 Z" id="Fill-9" fill="#4FA5A9"></path>
            <path d="M103.825,28.049 L103.825,44.402 C105.453,43.459 107.035,42.446 108.569,41.37 L108.569,41.175 L109.021,41.054 C111.231,39.476 113.337,37.762 115.33,35.927 L108.569,37.738 L108.569,31.626 L122.766,27.822 C124.237,25.921 125.607,23.937 126.864,21.876 L103.825,28.049" id="Fill-10" fill="#27CBC0"></path>
            <polyline id="Fill-11" fill="#2D3E56" points="84.629 47.59 114.681 39.538 131.692 44.096 131.692 122.244 114.681 117.686 84.629 125.738 84.629 47.59"></polyline>
            <path d="M88.973,50.924 L88.973,120.076 L114.681,113.188 L114.681,44.036 L88.973,50.924 Z M93.718,73.599 L99.829,71.961 L99.829,78.073 L93.718,79.711 L93.718,73.599 Z M103.826,70.891 L109.938,69.253 L109.938,75.364 L103.826,77.003 L103.826,70.891 Z M93.718,64.05 L99.829,62.412 L99.829,68.524 L93.718,70.162 L93.718,64.05 Z M103.826,51.793 L109.938,50.154 L109.938,56.266 L103.826,57.904 L103.826,51.793 L103.826,51.793 Z" id="Fill-12" fill="#F5AB35"></path>
            <path d="M88.973,50.924 L88.973,86.907 C92.47,84.42 95.689,81.567 98.578,78.408 L93.718,79.711 L93.718,73.599 L99.829,71.961 L99.829,76.996 C101.252,75.339 102.586,73.604 103.826,71.798 L103.826,70.891 L104.566,70.692 C109.65,62.922 112.994,53.91 114.039,44.208 L88.973,50.924 Z M93.718,64.05 L99.829,62.412 L99.829,68.524 L93.718,70.162 L93.718,64.05 Z M103.826,51.793 L109.938,50.154 L109.938,56.266 L103.826,57.904 L103.826,51.793 L103.826,51.793 Z" id="Fill-13" fill="#FFCF4B"></path>
            <polyline id="Fill-14" fill="#2D3E56" points="124.789 61.109 154.842 53.057 171.853 57.614 171.853 135.763 154.842 131.204 124.789 139.257 124.789 61.109"></polyline>
            <polyline id="Fill-15" fill="#4FA5A9" points="129.134 64.443 129.134 133.595 154.842 126.707 154.842 57.554 129.134 64.443"></polyline>
            <path d="M129.134,64.443 L129.134,99.28 C142.208,89.796 151.616,75.573 154.842,59.133 L154.842,57.554 L129.134,64.443" id="Fill-16" fill="#27CBC0"></path>
            <polyline id="Fill-17" fill="#2D3E56" points="133.878 68.02 150.098 63.673 150.098 69.785 133.878 74.131 133.878 68.02"></polyline>
            <polyline id="Fill-18" fill="#2D3E56" points="133.878 77.568 150.098 73.222 150.098 79.334 133.878 83.681 133.878 77.568"></polyline>
            <polyline id="Fill-19" fill="#2D3E56" points="133.878 87.118 150.098 82.772 150.098 88.883 133.878 93.23 133.878 87.118"></polyline>
            <polyline id="Fill-20" fill="#2D3E56" points="180.868 63.289 210.921 55.237 227.932 59.795 227.932 137.943 210.921 133.385 180.868 141.438 180.868 63.289"></polyline>
            <path d="M185.213,66.623 L185.213,135.775 L210.921,128.887 L210.921,59.735 L185.213,66.623 Z M189.957,79.749 L196.068,78.111 L196.068,84.223 L189.957,85.86 L189.957,79.749 Z M200.065,77.041 L206.177,75.403 L206.177,81.515 L200.065,83.152 L200.065,77.041 Z M189.957,70.2 L196.068,68.562 L196.068,74.674 L189.957,76.312 L189.957,70.2 Z M200.065,67.491 L206.177,65.854 L206.177,71.965 L200.065,73.604 L200.065,67.491 L200.065,67.491 Z" id="Fill-21" fill="#F5AB35"></path>
            <path d="M185.213,66.623 L185.213,104.443 C193.449,98.696 200.186,90.949 204.718,81.905 L200.065,83.152 L200.065,77.041 L206.177,75.403 L206.177,78.774 C208.728,72.859 210.36,66.455 210.895,59.742 L185.213,66.623 Z M189.957,79.749 L196.068,78.111 L196.068,84.223 L189.957,85.86 L189.957,79.749 Z M189.957,70.2 L196.068,68.562 L196.068,74.674 L189.957,76.312 L189.957,70.2 Z M200.065,67.491 L206.177,65.854 L206.177,71.965 L200.065,73.604 L200.065,67.491 L200.065,67.491 Z" id="Fill-22" fill="#FFCF4B"></path>
            <path d="M84.008,91.335 C84.008,91.335 95.573,98.321 114.639,102.065 C133.705,105.808 189.252,115.415 201.354,120.531 C213.458,125.647 227.307,133.132 233.67,138.996 C240.033,144.861 241.597,147.235 241.597,147.235 C241.597,147.235 223.564,167.631 193.807,173.246 C164.049,178.86 96.112,168.38 66.042,119.22 C66.042,119.22 45.829,97.385 44.332,42.486 C44.332,42.486 61.174,55.75 84.629,64.895 L84.629,91.006 L84.008,91.335" id="Fill-23" fill="#4EEC91"></path>
            <path d="M228.381,134.864 C230.449,136.293 232.247,137.686 233.67,138.996 C240.033,144.861 241.597,147.235 241.597,147.235 C241.597,147.235 223.564,167.631 193.807,173.246 C164.049,178.86 96.112,168.38 66.042,119.22 C66.042,119.22 47.075,98.732 44.526,47.547 C44.849,47.21 45.171,46.871 45.506,46.532 C59.4,131.315 160.604,168.631 228.381,134.864" id="Fill-24" fill="#1EBC61"></path>
            <path d="M88.363,68.32 C72.8,63.769 58.258,57.254 45.506,46.532 C46.529,68.504 51.98,87.713 60.717,103.885 C93.214,164.044 179.312,191.25 232.103,147.204 C189.263,100.246 95.87,123.646 59.423,74.495 C106.378,118.018 188.58,89.062 244.353,145.843 L246.015,147.534 L244.335,149.211 C198.642,194.8 122.707,182.619 79.97,139.785 C56.886,116.648 41.148,83.409 40.568,41.085 L40.49,35.433 L44.601,39.325 C57.148,51.207 71.914,58.309 87.917,63.185 L88.363,68.32" id="Fill-25" fill="#2D3E56"></path>
            <path d="M5.026,241.546 L5.026,244.435 L1.696,244.435 L1.696,241.546 L0,241.546 L0,248.874 L1.696,248.874 L1.696,245.869 L5.026,245.869 L5.026,248.874 L6.722,248.874 L6.722,241.546 L5.026,241.546 Z M20.635,241.546 L18.971,241.546 L17.012,244.802 L15.054,241.546 L13.254,241.546 L16.091,246.257 L16.091,248.874 L17.787,248.874 L17.787,246.277 L20.635,241.546 Z M31.795,247.241 C31.366,247.472 30.937,247.555 30.476,247.555 C29.072,247.555 28.099,246.581 28.099,245.21 C28.099,243.817 29.072,242.864 30.496,242.864 C31.24,242.864 31.858,243.127 32.391,243.691 L33.48,242.687 C32.769,241.859 31.7,241.42 30.413,241.42 C28.078,241.42 26.382,243.001 26.382,245.21 C26.382,247.419 28.078,249 30.381,249 C31.428,249 32.538,248.676 33.344,248.068 L33.344,245.095 L31.795,245.095 L31.795,247.241 Z M40.724,248.874 L42.42,248.874 L42.42,241.546 L40.724,241.546 L40.724,248.874 Z M51.653,247.514 L51.653,245.817 L55.056,245.817 L55.056,244.498 L51.653,244.498 L51.653,242.906 L55.506,242.906 L55.506,241.546 L49.967,241.546 L49.967,248.874 L55.642,248.874 L55.642,247.514 L51.653,247.514 Z M67.849,241.546 L67.849,245.995 L64.205,241.546 L62.802,241.546 L62.802,248.874 L64.478,248.874 L64.478,244.425 L68.131,248.874 L69.524,248.874 L69.524,241.546 L67.849,241.546 Z M78.757,247.514 L78.757,245.817 L82.16,245.817 L82.16,244.498 L78.757,244.498 L78.757,242.906 L82.61,242.906 L82.61,241.546 L77.071,241.546 L77.071,248.874 L82.746,248.874 L82.746,247.514 L78.757,247.514 Z M97.76,249 C99.854,249 100.87,247.953 100.87,246.73 C100.87,244.039 96.608,244.973 96.608,243.62 C96.608,243.157 96.995,242.781 98.001,242.781 C98.649,242.781 99.351,242.969 100.032,243.357 L100.555,242.068 C99.874,241.64 98.932,241.42 98.011,241.42 C95.928,241.42 94.922,242.456 94.922,243.704 C94.922,246.426 99.184,245.483 99.184,246.856 C99.184,247.304 98.775,247.639 97.771,247.639 C96.891,247.639 95.969,247.325 95.352,246.877 L94.776,248.152 C95.425,248.654 96.598,249 97.76,249 Z M111.391,249 C113.694,249 115.4,247.398 115.4,245.21 C115.4,243.022 113.694,241.42 111.391,241.42 C109.077,241.42 107.38,243.032 107.38,245.21 C107.38,247.388 109.077,249 111.391,249 Z M111.391,247.555 C110.082,247.555 109.097,246.603 109.097,245.21 C109.097,243.817 110.082,242.864 111.391,242.864 C112.699,242.864 113.683,243.817 113.683,245.21 C113.683,246.603 112.699,247.555 111.391,247.555 Z M122.487,248.874 L127.858,248.874 L127.858,247.492 L124.183,247.492 L124.183,241.546 L122.487,241.546 L122.487,248.874 Z M137.782,249 C139.866,249 141.101,247.807 141.101,245.649 L141.101,241.546 L139.426,241.546 L139.426,245.587 C139.426,246.98 138.829,247.555 137.792,247.555 C136.767,247.555 136.159,246.98 136.159,245.587 L136.159,241.546 L134.463,241.546 L134.463,245.649 C134.463,247.807 135.699,249 137.782,249 Z M149.978,248.874 L151.674,248.874 L151.674,242.927 L154.02,242.927 L154.02,241.546 L147.633,241.546 L147.633,242.927 L149.978,242.927 L149.978,248.874 Z M160.739,248.874 L162.436,248.874 L162.436,241.546 L160.739,241.546 L160.739,248.874 Z M173.532,249 C175.835,249 177.542,247.398 177.542,245.21 C177.542,243.022 175.835,241.42 173.532,241.42 C171.219,241.42 169.522,243.032 169.522,245.21 C169.522,247.388 171.219,249 173.532,249 Z M173.532,247.555 C172.224,247.555 171.239,246.603 171.239,245.21 C171.239,243.817 172.224,242.864 173.532,242.864 C174.841,242.864 175.825,243.817 175.825,245.21 C175.825,246.603 174.841,247.555 173.532,247.555 Z M189.675,241.546 L189.675,245.995 L186.031,241.546 L184.629,241.546 L184.629,248.874 L186.305,248.874 L186.305,244.425 L189.958,248.874 L191.351,248.874 L191.351,241.546 L189.675,241.546 Z M201.307,249 C203.4,249 204.416,247.953 204.416,246.73 C204.416,244.039 200.154,244.973 200.154,243.62 C200.154,243.157 200.542,242.781 201.547,242.781 C202.196,242.781 202.897,242.969 203.578,243.357 L204.102,242.068 C203.421,241.64 202.479,241.42 201.558,241.42 C199.474,241.42 198.469,242.456 198.469,243.704 C198.469,246.426 202.729,245.483 202.729,246.856 C202.729,247.304 202.322,247.639 201.316,247.639 C200.438,247.639 199.516,247.325 198.897,246.877 L198.322,248.152 C198.971,248.654 200.144,249 201.307,249 Z M221.785,247.241 C221.356,247.472 220.927,247.555 220.466,247.555 C219.063,247.555 218.089,246.581 218.089,245.21 C218.089,243.817 219.063,242.864 220.487,242.864 C221.23,242.864 221.849,243.127 222.382,243.691 L223.471,242.687 C222.759,241.859 221.691,241.42 220.403,241.42 C218.068,241.42 216.372,243.001 216.372,245.21 C216.372,247.419 218.068,249 220.372,249 C221.419,249 222.528,248.676 223.335,248.068 L223.335,245.095 L221.785,245.095 L221.785,247.241 Z M233.972,249 C236.055,249 237.29,247.807 237.29,245.649 L237.29,241.546 L235.615,241.546 L235.615,245.587 C235.615,246.98 235.019,247.555 233.981,247.555 C232.956,247.555 232.349,246.98 232.349,245.587 L232.349,241.546 L230.652,241.546 L230.652,245.649 C230.652,247.807 231.888,249 233.972,249 Z M244.774,248.874 L246.471,248.874 L246.471,241.546 L244.774,241.546 L244.774,248.874 Z M254.019,248.874 L257.348,248.874 C259.745,248.874 261.389,247.43 261.389,245.21 C261.389,242.99 259.745,241.546 257.348,241.546 L254.019,241.546 L254.019,248.874 Z M255.715,247.482 L255.715,242.938 L257.264,242.938 C258.72,242.938 259.672,243.807 259.672,245.21 C259.672,246.612 258.72,247.482 257.264,247.482 L255.715,247.482 Z M270.161,247.514 L270.161,245.817 L273.564,245.817 L273.564,244.498 L270.161,244.498 L270.161,242.906 L274.015,242.906 L274.015,241.546 L268.476,241.546 L268.476,248.874 L274.15,248.874 L274.15,247.514 L270.161,247.514 L270.161,247.514 Z" id="Fill-26" fill="#2D3E56"></path>
            <polyline id="Fill-27" fill="#2D3E56" points="271.945 219.854 271.945 233.496 260.3 233.496 260.3 219.696 245.791 195.46 258.22 195.46 266.596 209.487 274.971 195.46 286.506 195.46 271.945 219.854"></polyline>
            <polyline id="Fill-28" fill="#2D3E56" points="224.126 204.95 212.823 204.95 212.823 195.46 243.091 195.46 248.771 204.95 235.772 204.95 235.772 233.496 224.126 233.496 224.126 204.95"></polyline>
            <polygon id="Fill-29" fill="#2D3E56" points="198.475 233.496 210.121 233.496 210.121 195.46 198.475 195.46"></polygon>
            <path d="M179.676,234.232 C168.069,234.232 158.817,226.392 158.817,214.479 C158.817,202.565 168.069,194.724 179.676,194.724 C185.999,194.724 191.95,196.856 195.981,201.896 L196.346,202.35 L188.812,209.167 L188.399,208.67 C186.253,206.084 183.603,204.582 180.201,204.582 C174.334,204.582 170.568,208.681 170.568,214.479 C170.568,220.275 174.334,224.374 180.201,224.374 C183.603,224.374 186.253,222.873 188.399,220.286 L188.812,219.79 L196.346,226.607 L195.981,227.062 C191.95,232.101 185.999,234.232 179.676,234.232" id="Fill-30" fill="#2D3E56"></path>
            <path d="M133.04,226.347 L118.313,226.347 L115.421,233.496 L103.436,233.496 L120.226,195.46 L131.283,195.46 L148.128,233.496 L135.931,233.496 L133.04,226.347 Z M121.86,217.435 L129.492,217.435 L125.676,207.937 L121.86,217.435 L121.86,217.435 Z" id="Fill-31" fill="#2D3E56"></path>
            <polyline id="Fill-32" fill="#2D3E56" points="87.205 224.006 105.375 224.006 101.186 233.496 71.641 233.496 71.641 226.134 89.487 204.95 72.114 204.95 72.114 195.46 105.051 195.46 105.051 202.823 87.205 224.006"></polyline>
            <polyline id="Fill-33" fill="#2D3E56" points="49.514 224.216 68.755 224.216 68.755 233.496 37.974 233.496 37.974 195.46 68.072 195.46 68.072 204.74 49.514 204.74 49.514 209.707 65.864 209.707 65.864 218.725 49.514 218.725 49.514 224.216"></polyline>
            <path d="M16.378,223.719 L11.646,223.719 L11.646,233.496 L0,233.496 L0,195.46 L17.441,195.46 C26.456,195.46 34.409,199.866 34.409,209.694 C34.409,214.935 32.022,219.103 27.497,221.543 L35.701,233.496 L23.055,233.496 L16.378,223.719 Z M11.646,204.898 L11.646,214.438 L16.811,214.438 C20.056,214.438 22.658,213.261 22.658,209.694 C22.658,206.101 20.098,204.898 16.811,204.898 L11.646,204.898 L11.646,204.898 Z" id="Fill-34" fill="#2D3E56"></path>
        </g>
    </g>
</svg>